PathFileType	4	(X/Y/Z)	Kaydara	
DataRate	CameraRate	NumFrames	NumMarkers	Units	OrigDataRate	OrigDataStartFrame	OrigNumFrames	
120.00	120.00	4	72	mm	120.00	235	268	
Frame#	Time	Hips			RightUpLeg			RightLeg			RightFoot			RightFoot_End			LeftUpLeg			LeftLeg			LeftFoot			LeftFoot_End			Spine			Spine1			Spine2			Spine3			Neck			Head			Head_End			RightShoulder			RightArm			RightForeArm			RightHand			RightHandThumb1			RightHandThumb2			RightHandThumb3			RightHandThumb3_End			RightInHandIndex			RightHandIndex1			RightHandIndex2			RightHandIndex3			RightHandIndex3_End			RightInHandMiddle			RightHandMiddle1			RightHandMiddle2			RightHandMiddle3			RightHandMiddle3_End			RightInHandRing			RightHandRing1			RightHandRing2			RightHandRing3			RightHandRing3_End			RightInHandPinky			RightHandPinky1			RightHandPinky2			RightHandPinky3			RightHandPinky3_End			LeftShoulder			LeftArm			LeftForeArm			LeftHand			LeftHandThumb1			LeftHandThumb2			LeftHandThumb3			LeftHandThumb3_End			LeftInHandIndex			LeftHandIndex1			LeftHandIndex2			LeftHandIndex3			LeftHandIndex3_End			LeftInHandMiddle			LeftHandMiddle1			LeftHandMiddle2			LeftHandMiddle3			LeftHandMiddle3_End			LeftInHandRing			LeftHandRing1			LeftHandRing2			LeftHandRing3			LeftHandRing3_End			LeftInHandPinky			LeftHandPinky1			LeftHandPinky2			LeftHandPinky3			LeftHandPinky3_End			
		X1	Y1	Z1	X2	Y2	Z2	X3	Y3	Z3	X4	Y4	Z4	X5	Y5	Z5	X6	Y6	Z6	X7	Y7	Z7	X8	Y8	Z8	X9	Y9	Z9	X10	Y10	Z10	X11	Y11	Z11	X12	Y12	Z12	X13	Y13	Z13	X14	Y14	Z14	X15	Y15	Z15	X16	Y16	Z16	X17	Y17	Z17	X18	Y18	Z18	X19	Y19	Z19	X20	Y20	Z20	X21	Y21	Z21	X22	Y22	Z22	X23	Y23	Z23	X24	Y24	Z24	X25	Y25	Z25	X26	Y26	Z26	X27	Y27	Z27	X28	Y28	Z28	X29	Y29	Z29	X30	Y30	Z30	X31	Y31	Z31	X32	Y32	Z32	X33	Y33	Z33	X34	Y34	Z34	X35	Y35	Z35	X36	Y36	Z36	X37	Y37	Z37	X38	Y38	Z38	X39	Y39	Z39	X40	Y40	Z40	X41	Y41	Z41	X42	Y42	Z42	X43	Y43	Z43	X44	Y44	Z44	X45	Y45	Z45	X46	Y46	Z46	X47	Y47	Z47	X48	Y48	Z48	X49	Y49	Z49	X50	Y50	Z50	X51	Y51	Z51	X52	Y52	Z52	X53	Y53	Z53	X54	Y54	Z54	X55	Y55	Z55	X56	Y56	Z56	X57	Y57	Z57	X58	Y58	Z58	X59	Y59	Z59	X60	Y60	Z60	X61	Y61	Z61	X62	Y62	Z62	X63	Y63	Z63	X64	Y64	Z64	X65	Y65	Z65	X66	Y66	Z66	X67	Y67	Z67	X68	Y68	Z68	X69	Y69	Z69	X70	Y70	Z70	X71	Y71	Z71	X72	Y72	Z72	

235	1.95	1446.805	859.65103	-201.189	1468.582749327078	835.6161699432391	-241.9784985269703	1406.5759135763956	429.71494603942256	-269.02405798346206	1505.3371420390533	82.54151043767881	-432.55436759902125	1511.5097163769697	-25.388157562619114	-305.6106956759065	1431.312792612377	854.7845601914572	-146.98213773687385	1305.9355330614098	467.0068841418939	-53.58039824625693	1227.3482763208403	84.01488891954979	89.33557939588877	1294.033738217229	23.15624592577182	254.91277617891143	1417.9523196480295	987.380604384271	-257.34867706788424	1374.1426159057905	1064.4331897414547	-296.4118102473264	1323.5103720763905	1141.8645025555852	-336.37758170416805	1267.3375380525888	1210.4794216959433	-373.9407189692548	1206.257638595768	1283.4087557704377	-409.7487358261299	1160.8619960008941	1357.3299724447327	-375.66988099762506	1141.692762531692	1453.6602962107586	-253.98921733950783	1228.319895326844	1258.0334224839846	-408.2758646745758	1242.0767007515558	1244.2753984253075	-435.72645389827807	1320.2368917071249	1112.9184738092943	-362.4057058033778	1343.5106795004397	1117.1249202838844	-396.36374786779317	1350.8911419525207	1143.353922103672	-395.2396425922131	1355.8914449369925	1159.796089863657	-402.2752954057645	1359.4622120083168	1168.0254646049616	-407.33203581015476	1362.5147721926242	1172.1305133672063	-411.6820204410341	1352.2963715642763	1134.5397413100711	-394.89908264578156	1364.2733407980425	1147.7978002381008	-396.71099482504746	1370.4145957493183	1155.285022870022	-402.248321138995	1372.0270682672658	1160.5801987722616	-407.7696325820423	1371.8740202792019	1165.3949597022606	-413.74181027710966	1352.016100045381	1125.2351596656301	-395.4665764270222	1363.5470816035786	1133.1343198102477	-397.5396101621938	1370.169852185077	1140.0314671536005	-403.65626833049794	1372.0775317939847	1145.809072996603	-410.35320232017153	1371.8917246182496	1150.7803623539244	-416.9051810481423	1351.5376839150326	1118.3223952032633	-395.77924254517643	1361.5302880617228	1119.3986157865188	-397.78551173673486	1367.2039527089196	1124.096727663874	-403.1899998445651	1368.9916096672719	1128.9721611818893	-409.6886103528705	1368.7920485333993	1133.315883610609	-415.8675416246947	1350.4405031327703	1109.9769249738852	-396.41824502168873	1359.0178024808426	1105.82083117631	-398.51186377676413	1363.3632160678837	1107.5290460571634	-402.94532020596023	1364.5714468289161	1110.09169072172	-407.73657351288466	1364.339583182581	1113.367737991143	-413.2395424769104	1224.806796635882	1262.2913328976883	-387.52138356901617	1223.6693506277995	1246.1461300817173	-351.7548083866388	1269.5156834432169	1139.4942670792695	-383.28421147840544	1316.7871763617013	1112.2416790892873	-355.73248404342354	1320.7697734462713	1136.153330359159	-356.12224236270345	1331.1471510271344	1139.2071765748328	-362.8337584368802	1338.449884054946	1138.538398979753	-368.73158376295464	1344.602820493751	1135.5894490361331	-374.6953635754331	1320.8518683193038	1129.8972441611159	-360.3440720544478	1329.7516931939624	1139.7070859378953	-372.8036095516113	1338.9123674594498	1138.1422234829515	-382.5496136640837	1345.4838376824684	1134.079147206002	-387.2351648845466	1351.5141299599136	1128.631712305442	-390.1869172685231	1320.8896707765284	1121.5537473786296	-363.2903726116282	1329.5898847339163	1126.6113874740465	-377.0363811343138	1339.5658259892593	1123.7606061626382	-388.0208820547371	1347.4843839688733	1118.3100602275745	-393.8416445361624	1354.0779090816445	1112.0828676621616	-397.15296187632947	1320.661394996689	1115.4776244905665	-365.0535505241769	1328.1788577075	1114.937305537886	-378.9019878540962	1336.839909058894	1111.275347302257	-388.81188020699204	1344.4599258571347	1105.3927019921232	-394.60475993185713	1350.6509306927105	1099.2413180327594	-397.8027400609423	1320.3599561326928	1107.6477142973824	-366.7281968110918	1326.978476295117	1102.559342434462	-380.4648687577876	1333.8282630473418	1097.7922496718872	-388.8637725744424	1339.3448978438942	1092.6138960858773	-393.31330431245624	1344.8052728554962	1086.653994989753	-396.27520633321234
236	1.958	1446.805	859.65103	-201.189	1468.3821821593363	835.4596965800952	-242.06788627148066	1406.694951086548	429.5228822432675	-269.11442736634604	1505.472008529484	82.81198165505025	-433.42690787177713	1511.9510160429716	-25.249958080834894	-306.644867962628	1431.4892884561377	854.9497607961459	-146.86577095136312	1306.0483750601063	467.22385129328364	-53.33158936798093	1227.2919495283418	84.16771342078754	89.37013146501874	1294.0251239235226	23.12803787362549	254.85945658511935	1418.069537778277	987.352135808748	-257.46087844174747	1374.296631840723	1064.442073000462	-296.483156437532	1323.706856237729	1141.9334264752713	-336.3717712986578	1267.5853676476324	1210.6442844416874	-373.8063624585208	1206.567418038459	1283.6746898462482	-409.47119191162545	1161.1984909336013	1357.592711355595	-375.35826602397793	1142.08095355327	1453.9742401136375	-253.7140218409238	1228.4794101871478	1258.212320086428	-407.9912946495242	1241.8926277684902	1244.1879501963044	-435.346249625706	1319.7089216090765	1113.059343635977	-361.4738012823752	1342.47055828739	1117.209129174424	-394.73728752910665	1349.887293142745	1143.3633185315316	-393.6251342705776	1354.8830450741104	1159.7352159145646	-400.63824641524906	1358.4341574417504	1167.9211574979888	-405.66969432612484	1361.4562221095134	1171.994688456013	-409.9904086066372	1351.2357108695594	1134.5621228115783	-393.2516685798262	1363.1247903259487	1147.745479129682	-394.9946657956832	1369.2105987960658	1155.1799345569923	-400.4823379196234	1370.8119878614623	1160.4432169539896	-405.9849987422894	1370.6655274877958	1165.2321912201946	-411.949977597981	1350.9139338346802	1125.275057011653	-393.79543934300006	1362.3367599046933	1133.110828563603	-395.78840734620684	1368.8938353128628	1139.9529608366233	-401.84798504614326	1370.7856554607706	1145.6933140431863	-408.5210279576024	1370.6058557643066	1150.6369677144141	-415.06446467422353	1350.4082617337638	1118.3766023889839	-394.09303468648886	1360.2797278641976	1119.4085199569108	-396.01431460188604	1365.8910168749508	1124.0613813370012	-401.3662057400177	1367.660655869181	1128.902324333332	-407.84024264586407	1367.4654508687768	1133.2207469042519	-414.01042877043665	1349.2836560553835	1110.04956579273	-394.71714114533967	1357.7322927086186	1105.8642558215495	-396.72340399988053	1362.020300470689	1107.5406711566973	-401.11066375795565	1363.211767216438	1110.0802901240331	-405.8820352677389	1362.981694948661	1113.3351660116714	-411.37611948701414	1225.2270385515187	1262.5730192901494	-387.3622134070467	1224.395562831467	1246.7565015887571	-351.5156428768203	1270.3218296175144	1140.3075673907733	-381.86190637506974	1316.6791662019778	1110.1933994202466	-355.73120375254877	1320.6274633169178	1134.2240523825712	-356.11818379380026	1331.0167163477506	1137.3338938927097	-362.68410178855265	1338.3451343296003	1136.6963372258995	-368.45755500800226	1344.5343722092116	1133.766729862289	-374.29801639035134	1320.7696974633109	1127.9567708190111	-360.2637776388221	1329.7697157943776	1137.8772267986894	-372.48989800313166	1338.9953507183714	1136.3581739288843	-382.0395891968465	1345.5826454074072	1132.3042396535739	-386.62133216151165	1351.6094715182517	1126.8513234260668	-389.4994504057366	1320.8511277406658	1119.5867592416023	-363.15412169278414	1329.6726682719848	1124.7379270412143	-376.6422099042517	1339.7249279966804	1121.9332351371297	-387.4058420700521	1347.665187345679	1116.4918463208312	-393.0981455486826	1354.2561850187278	1110.257759019186	-396.3273455231527	1320.6513131689758	1113.489359009841	-364.8838704202758	1328.3027400341418	1113.0152418421949	-378.4725818901259	1337.0356496244058	1109.38932226069	-388.1835498141087	1344.6794361184059	1103.513304892687	-393.84912565303597	1350.8694195050016	1097.3543893890064	-396.96826360389855	1320.3783277626353	1105.6294538350007	-366.5255959949506	1327.1379005166605	1100.584303386037	-380.00416837336013	1334.0530060513756	1095.83933125271	-388.2349066889761	1339.5907340417104	1090.6625627545393	-392.5872892704293	1345.0523694676992	1084.6941126004726	-395.4768864205484
237	1.967	1446.805	859.65103	-201.189	1468.2051550881079	835.2861786016894	-242.15889965176336	1406.921842647606	429.326794819013	-269.2699387753558	1505.255769893289	83.43260053933588	-434.90119598512626	1512.0151255400667	-24.740208576990568	-308.2156010119363	1431.6536893110492	855.1352947078483	-146.74501565419044	1306.229073688691	467.43797397038793	-53.07852866971611	1227.2952778097824	84.3195079976322	89.412832410146	1293.8178176347533	22.990990794388047	254.86039982940042	1418.1352798250691	987.3103996670045	-257.5850942769356	1374.3857860145113	1064.3995511329265	-296.63683083946466	1323.8186340377579	1141.8983910509999	-336.53933841907985	1267.7174756958393	1210.629427831796	-373.9596993368228	1206.7179440972736	1283.675296404302	-409.6125257011075	1161.3722363696686	1357.5787402947853	-375.4437201002951	1142.301370566531	1454.0714319655435	-253.89135261084846	1228.5794680202782	1258.1421983427892	-408.15608849946125	1241.638217537835	1243.8654474053635	-435.4160522324737	1319.07632803361	1112.958620232386	-361.011653466623	1341.4049490655595	1116.6257833194438	-393.57709968532544	1348.7554114073855	1142.6287978721355	-392.52560542646756	1353.6631762562613	1158.939246431556	-399.52542247106317	1357.1506406978551	1167.0919907644723	-404.53212921156006	1360.1176085710326	1171.1460620042071	-408.81894348316746	1350.089383555513	1133.8396311363044	-392.105246287113	1361.845579462858	1146.8828021711627	-393.7982705228518	1367.838069500709	1154.265179898449	-399.23450658764807	1369.3932203348097	1159.524089404957	-404.7125466940887	1369.2164297945262	1164.3283466058813	-410.6621157301814	1349.765729918502	1124.585719557409	-392.60779215655975	1361.0579291078645	1132.3026724446427	-394.52973838522036	1367.5133509078355	1139.0928495822604	-400.5278883077783	1369.3494727418497	1144.8302818954694	-407.168686629993	1369.1365313941617	1149.7918010511476	-413.69402546154834	1349.262084418445	1117.7138295994646	-392.8776070566183	1359.0181486810832	1118.661080476393	-394.7112806276864	1364.5412273340385	1123.2738528849575	-400.0043249937441	1366.257343821029	1128.1147227264628	-406.44444760541984	1366.0310752367845	1132.4512478952875	-412.59627625844024	1348.1439336820642	1109.4248413868597	-393.4706767578518	1356.4905440130506	1105.1838553470077	-395.37762818137264	1360.7090282507481	1106.8366208014997	-399.7098823869112	1361.8619979620776	1109.3802930558638	-404.45269613536124	1361.6047137249766	1112.653551439015	-409.92832786077076	1225.422375517506	1262.6358885648688	-387.49568369265637	1225.0106000462824	1247.1955796215743	-351.72107279379435	1269.9791833831566	1139.3711797938595	-382.29670272496145	1309.7231567384686	1122.1754493581075	-347.92368413071546	1313.803483498575	1146.58717924296	-348.3923375774769	1324.3901807608613	1149.9598362054867	-354.68301471674425	1331.8698535793328	1149.4869425603338	-360.22888690889175	1338.1969560230373	1146.6789002980313	-365.8488983539048	1314.0078105379757	1140.301520583255	-352.4419016270855	1323.3527264660124	1150.6540853886966	-364.4038311207957	1332.814909852388	1149.3690256708835	-373.63513669306144	1339.5093965452097	1145.4053773105848	-377.9948499438171	1345.5980259199891	1139.989955781741	-380.67294107064833	1314.114495043001	1131.863347009097	-355.23739812864187	1323.2861124997646	1137.3991436768422	-368.41652711402355	1333.5986946485045	1134.8393108468663	-378.8209076427505	1341.669325099356	1129.501813983162	-384.2396659315753	1348.3284699870953	1123.3063047822113	-387.24723954688386	1313.9239117944205	1125.7074188010815	-356.90794800461765	1321.8976529085232	1125.529063540326	-370.1715414187632	1330.8591776912544	1122.1052394765422	-379.55777579619587	1338.6296234646588	1116.3234199378085	-384.9533284099682	1344.8841132941943	1110.197938960312	-387.8611637496249	1313.6500547681662	1117.7624610566518	-358.480603689386	1320.7054777866542	1112.938448807184	-371.6219309476367	1327.8048877619829	1108.3363503112755	-379.5759340750506	1333.4356134716545	1103.2191139831948	-383.72327480937815	1338.954736401256	1097.275001079615	-386.4210393278276
238	1.975	1446.805	859.65103	-201.189	1467.9370937879141	835.1931608007224	-242.2535954328717	1407.0419052445798	429.2200656479603	-269.4938449913392	1505.0875008190903	84.00441289342187	-436.21339487801714	1512.1125866590419	-24.292600266217285	-309.6374556720963	1431.910827878559	855.2252864777768	-146.65155204664296	1306.3395590743116	467.6144901113617	-52.85043479645371	1227.255310671668	84.41956094868243	89.38643367817865	1293.4509272797857	22.888859829070377	254.89798995531518	1418.1992287871005	987.3293843410305	-257.57361685762856	1374.4788431015443	1064.4353669310274	-296.62282499565356	1323.9346463749446	1141.9494081901762	-336.52465318336124	1267.8418811393562	1210.6889900154597	-373.9447805683465	1206.8450442680307	1283.737088929821	-409.6002119599998	1161.4757909064313	1357.633216218259	-375.4482648776102	1142.4568531723978	1454.2511029080244	-254.00731232285648	1228.668153007618	1258.131547091123	-408.18625907233564	1241.3793747864504	1243.6001556071108	-435.3468190771604	1318.423752657311	1112.8639586070851	-360.42938998355913	1340.2131807980104	1116.2395439603251	-392.3280016235412	1347.5182837777727	1142.1515400339533	-391.3140526049822	1352.3818569331677	1158.427714032775	-398.26643555352194	1355.8358383464274	1166.5629042823264	-403.2246702033004	1358.7725881153235	1170.6077259662452	-407.4579025818913	1348.836450082322	1133.3714366633258	-390.84575055970424	1360.4974780486814	1146.3353335120505	-392.4489557808558	1366.4339921799565	1153.6903942255005	-397.80206139941436	1367.969566200914	1158.948611421631	-403.236628764198	1367.7868541838093	1163.7632803697043	-409.1557361902889	1348.5092400203112	1124.138767219821	-391.3085152300286	1359.7066666432547	1131.7898815249362	-393.12133869021056	1366.100866424516	1138.5533497271383	-399.0237988743042	1367.913288474082	1144.2914295224004	-405.60973738848554	1367.6938310317378	1149.2650676041137	-412.1005991408021	1348.0053564295954	1117.2836499081693	-391.552588727553	1357.6758734532777	1118.1857184632895	-393.2664178103375	1363.1455870590858	1122.7784786672923	-398.47113202326494	1364.8388537088204	1127.6217070772957	-404.8557303764319	1364.60646205594	1131.9704454886926	-410.9739020848514	1346.890800002776	1109.0183353060268	-392.11791192071234	1355.1606624228448	1104.7495865995616	-393.8980938923796	1359.3367934971138	1106.3916322472505	-398.15244964195784	1360.4732751259894	1108.9395781176302	-402.8513024257921	1360.210670134945	1112.2251458728156	-408.29512809965274	1225.594950646333	1262.771928004293	-387.44582255956203	1225.584558023632	1247.6620015636445	-351.74474733646497	1270.4283035461954	1140.0525101139294	-381.1670955997523	1311.3750327833159	1117.5396357959828	-349.323306070773	1315.564444057395	1142.206093351638	-349.83705996107074	1326.2496711212748	1145.7730663808695	-355.9006319250727	1333.8028826999448	1145.4185738544645	-361.26171178082234	1340.1955061367898	1142.6947786822411	-366.7049031808113	1315.8012682695155	1135.887975041954	-353.8144501347896	1325.3598458143076	1146.4968242573545	-365.55320096924595	1334.944844035072	1145.3646147511213	-374.5268722334233	1341.6808947129136	1141.4758673899657	-378.7092291720037	1347.7804717887661	1136.1088903526409	-381.2289538952752	1315.9126725507058	1127.3936865347248	-356.54040234710135	1325.295237892105	1133.1490979009297	-369.46428571691524	1335.7417442157675	1130.7477855934476	-379.5789438592211	1343.8624730274232	1125.4966889582697	-384.7796260314153	1350.533579022463	1119.352254910054	-387.6119109809543	1315.720316709586	1121.1917588902404	-358.16834929074736	1323.8825676110307	1121.1708951949097	-371.1686002884248	1332.9603586158005	1117.8764378091157	-380.29393151132587	1340.7789017664372	1112.1732912286634	-385.47468313886964	1347.0445186742863	1106.09361992257	-388.2155972903747	1315.4355544295663	1113.184793076577	-359.6918921108078	1322.6583607602943	1108.4677687527446	-372.564099985773	1329.849376647307	1103.9548324782259	-380.2972481999452	1335.5144428334129	1098.888016932016	-384.2821471587913	1341.0430064832778	1092.9804690914289	-386.8287298540188
